<svg xmlns="http://www.w3.org/2000/svg" width="800" height="230" viewBox="0 0 800 230">
  <defs>
    <linearGradient id="bg" x1="0%" y1="0%" x2="100%" y2="100%">
      <stop offset="0%" style="stop-color:#11111b"/>
      <stop offset="50%" style="stop-color:#1e1e2e"/>
      <stop offset="100%" style="stop-color:#181825"/>
    </linearGradient>
    <linearGradient id="title-grad" x1="0%" y1="0%" x2="100%" y2="0%">
      <stop offset="0%" style="stop-color:#89b4fa"/>
      <stop offset="30%" style="stop-color:#74c7ec"/>
      <stop offset="60%" style="stop-color:#94e2d5"/>
      <stop offset="100%" style="stop-color:#a6e3a1"/>
    </linearGradient>
    <linearGradient id="wave1" x1="0%" y1="0%" x2="100%" y2="0%">
      <stop offset="0%" style="stop-color:#89b4fa;stop-opacity:0.12"/>
      <stop offset="100%" style="stop-color:#a6e3a1;stop-opacity:0.06"/>
    </linearGradient>
    <linearGradient id="wave2" x1="0%" y1="0%" x2="100%" y2="0%">
      <stop offset="0%" style="stop-color:#74c7ec;stop-opacity:0.1"/>
      <stop offset="100%" style="stop-color:#89b4fa;stop-opacity:0.05"/>
    </linearGradient>
    <linearGradient id="wave3" x1="0%" y1="0%" x2="100%" y2="0%">
      <stop offset="0%" style="stop-color:#cba6f7;stop-opacity:0.08"/>
      <stop offset="100%" style="stop-color:#74c7ec;stop-opacity:0.04"/>
    </linearGradient>
    <linearGradient id="accent-line" x1="0%" y1="0%" x2="100%" y2="0%">
      <stop offset="0%" style="stop-color:#89b4fa;stop-opacity:0"/>
      <stop offset="20%" style="stop-color:#89b4fa"/>
      <stop offset="50%" style="stop-color:#74c7ec"/>
      <stop offset="80%" style="stop-color:#a6e3a1"/>
      <stop offset="100%" style="stop-color:#a6e3a1;stop-opacity:0"/>
    </linearGradient>
    <filter id="glow">
      <feGaussianBlur stdDeviation="3" result="blur"/>
      <feMerge>
        <feMergeNode in="blur"/>
        <feMergeNode in="SourceGraphic"/>
      </feMerge>
    </filter>
  </defs>

  <rect width="800" height="230" rx="12" fill="url(#bg)"/>
  <rect width="800" height="230" rx="12" fill="none" stroke="#313244" stroke-width="1"/>

  <!-- Swirling wave paths -->
  <path d="M0,170 Q150,120 300,150 Q450,180 550,140 Q650,100 800,130 L800,230 L0,230 Z" fill="url(#wave1)"/>
  <path d="M0,190 Q200,150 350,180 Q500,210 650,160 Q750,130 800,150 L800,230 L0,230 Z" fill="url(#wave2)"/>
  <path d="M0,205 Q100,185 250,200 Q400,215 550,190 Q700,165 800,185 L800,230 L0,230 Z" fill="url(#wave3)"/>

  <!-- Subtle particle dots -->
  <g opacity="0.08">
    <circle cx="680" cy="50" r="1.5" fill="#89b4fa"/>
    <circle cx="700" cy="45" r="1" fill="#74c7ec"/>
    <circle cx="720" cy="55" r="1.5" fill="#a6e3a1"/>
    <circle cx="695" cy="65" r="1" fill="#cba6f7"/>
    <circle cx="715" cy="38" r="1" fill="#89b4fa"/>
    <circle cx="735" cy="48" r="1.5" fill="#74c7ec"/>
    <circle cx="660" cy="58" r="1" fill="#a6e3a1"/>
    <circle cx="740" cy="62" r="1" fill="#b4befe"/>
    <circle cx="670" cy="40" r="1.5" fill="#89b4fa"/>
    <circle cx="750" cy="42" r="1" fill="#74c7ec"/>
    <circle cx="90" cy="210" r="1.5" fill="#a6e3a1"/>
    <circle cx="70" cy="220" r="1" fill="#89b4fa"/>
    <circle cx="110" cy="225" r="1.5" fill="#74c7ec"/>
    <circle cx="85" cy="235" r="1" fill="#cba6f7"/>
    <circle cx="55" cy="215" r="1" fill="#a6e3a1"/>
    <circle cx="120" cy="215" r="1" fill="#89b4fa"/>
  </g>

  <!-- Title -->
  <text x="400" y="115" font-family="'SF Mono','Fira Code','JetBrains Mono','Cascadia Code',Consolas,monospace" font-size="42" font-weight="bold" fill="url(#title-grad)" text-anchor="middle" letter-spacing="6" filter="url(#glow)">REAL-FRUIT-SNACKS</text>

  <!-- Accent line -->
  <rect x="150" y="133" width="500" height="2" rx="1" fill="url(#accent-line)"/>

  <!-- Subtitle -->
  <text x="400" y="165" font-family="'SF Mono','Fira Code','JetBrains Mono','Cascadia Code',Consolas,monospace" font-size="14" fill="#a6adc8" text-anchor="middle" letter-spacing="4">OFFENSIVE SECURITY TOOLSMITH</text>

</svg>
